<svg width="200" height="200" viewBox="0 0 200 200" fill="none" xmlns="http://www.w3.org/2000/svg">
<path d="M35.4167 1.61203e-05H164.583C169.236 -0.00448106 173.843 0.932018 178.142 2.75592C182.441 4.57981 186.347 7.25531 189.636 10.6293C192.926 14.0032 195.535 18.0094 197.313 22.4186C199.091 26.8277 200.004 31.5533 200 36.3248V163.675C200.004 168.447 199.091 173.172 197.313 177.581C195.535 181.991 192.926 185.997 189.636 189.371C186.347 192.745 182.441 195.42 178.142 197.244C173.843 199.068 169.236 200.004 164.583 200H35.4167C30.7645 200.004 26.157 199.068 21.8581 197.244C17.5592 195.42 13.6532 192.745 10.3635 189.371C7.07392 185.997 4.46532 181.991 2.68702 177.581C0.908717 173.172 -0.00436903 168.447 1.57173e-05 163.675V36.3248C-0.00436903 31.5533 0.908717 26.8277 2.68702 22.4186C4.46532 18.0094 7.07392 14.0032 10.3635 10.6293C13.6532 7.25531 17.5592 4.57981 21.8581 2.75592C26.157 0.932018 30.7645 -0.00448106 35.4167 1.61203e-05Z" fill="#F0F0F0"/>
<path d="M100.27 40C66.4357 40 39 67.4309 39 101.27C39 128.34 56.5556 151.307 80.9 159.408C83.9619 159.975 85.0863 158.079 85.0863 156.461C85.0863 155 85.0292 150.173 85.0032 145.054C67.9575 148.76 64.3607 137.825 64.3607 137.825C61.5737 130.743 57.5579 128.86 57.5579 128.86C51.9992 125.057 57.977 125.135 57.977 125.135C64.1296 125.567 67.3693 131.449 67.3693 131.449C72.8339 140.816 81.7025 138.108 85.1988 136.543C85.7485 132.582 87.3366 129.88 89.0886 128.35C75.4801 126.8 61.1739 121.546 61.1739 98.0697C61.1739 91.3808 63.5674 85.9148 67.4871 81.6242C66.8508 80.0807 64.7538 73.8493 68.0805 65.4098C68.0805 65.4098 73.2255 63.763 84.934 71.6902C89.821 70.3323 95.0625 69.6519 100.27 69.6288C105.477 69.6519 110.722 70.3323 115.619 71.6902C127.313 63.763 132.451 65.4098 132.451 65.4098C135.786 73.8493 133.688 80.0807 133.052 81.6242C136.98 85.9148 139.357 91.3803 139.357 98.0697C139.357 121.602 125.024 126.784 111.381 128.301C113.578 130.202 115.536 133.931 115.536 139.647C115.536 147.845 115.465 154.443 115.465 156.461C115.465 158.091 116.568 160.002 119.674 159.4C144.005 151.289 161.539 128.331 161.539 101.27C161.539 67.4309 134.107 40 100.27 40Z" fill="#313131"/>
<path d="M61.9475 127.28C61.813 127.584 61.3334 127.675 60.8976 127.467C60.4531 127.267 60.2032 126.852 60.3474 126.546C60.4795 126.233 60.9591 126.145 61.4026 126.356C61.8481 126.555 62.1018 126.974 61.9475 127.28ZM64.9614 129.969C64.6692 130.24 64.0979 130.114 63.7101 129.686C63.3094 129.259 63.2344 128.688 63.5309 128.413C63.8322 128.142 64.3862 128.268 64.7879 128.696C65.1887 129.128 65.2665 129.696 64.9609 129.969M67.0291 133.41C66.6533 133.67 66.0392 133.426 65.6601 132.881C65.2848 132.337 65.2848 131.683 65.6683 131.421C66.0488 131.159 66.6533 131.395 67.0378 131.935C67.4126 132.489 67.4126 133.143 67.0286 133.41M70.5254 137.395C70.1895 137.765 69.4745 137.666 68.9507 137.16C68.4154 136.666 68.266 135.965 68.6028 135.594C68.9426 135.224 69.6619 135.328 70.1895 135.829C70.7215 136.322 70.8834 137.028 70.5254 137.395ZM75.0443 138.74C74.8968 139.22 74.2077 139.438 73.5138 139.234C72.8209 139.024 72.3673 138.462 72.5071 137.977C72.6513 137.494 73.3432 137.267 74.0424 137.485C74.7344 137.694 75.1885 138.252 75.0443 138.74ZM80.1878 139.31C80.2051 139.816 79.6165 140.235 78.888 140.244C78.1552 140.26 77.5627 139.851 77.555 139.354C77.555 138.844 78.1302 138.429 78.8626 138.417C79.591 138.402 80.1878 138.808 80.1878 139.31ZM85.2401 139.117C85.3276 139.61 84.8211 140.116 84.0979 140.251C83.3867 140.381 82.7284 140.076 82.6376 139.588C82.5492 139.082 83.0652 138.576 83.775 138.445C84.4996 138.319 85.1478 138.616 85.2401 139.117Z" fill="#313131"/>
</svg>
